<svg width="80" height="20" viewBox="0 0 80 20" fill="none" xmlns="http://www.w3.org/2000/svg">
<path d="M49.6735 19.9582C48.7158 19.9582 48.0699 19.8007 47.5798 19.6206L48.1591 17.1693C48.4884 17.2857 48.8345 17.3466 49.1834 17.3494C50.2518 17.3494 50.5642 16.63 50.5642 15.2139V5.77814H53.838V15.1272C53.838 17.8245 52.8129 19.9582 49.6735 19.9582Z" fill="#0066FF"/>
<path fill-rule="evenodd" clip-rule="evenodd" d="M61.2915 18.3311C65.195 18.3311 67.5543 15.448 67.5543 12.0925C67.5543 8.73701 65.1933 5.89628 61.2915 5.89628C57.3898 5.89628 55.0701 8.73889 55.0701 12.0925C55.0701 15.4461 57.4294 18.3311 61.2915 18.3311ZM61.2915 15.5338C59.3603 15.5338 58.2875 13.9423 58.2875 12.0916C58.2875 10.2408 59.3595 8.64933 61.2915 8.64933C63.2629 8.64933 64.3372 10.2417 64.3372 12.0916C64.3372 13.9414 63.2629 15.5338 61.2915 15.5338Z" fill="#0066FF"/>
<path fill-rule="evenodd" clip-rule="evenodd" d="M68.7006 0.795456H71.7695V6.19898H73.973C74.7643 6.19898 75.5481 6.35553 76.2793 6.65973C77.0105 6.96392 77.6749 7.40978 78.2347 7.97184C78.7944 8.5339 79.2384 9.20116 79.5413 9.93555C79.8442 10.6699 80 11.457 80 12.2519C80 13.8572 79.365 15.3968 78.2347 16.5319C77.1043 17.6671 75.5714 18.3048 73.973 18.3048H68.7006V0.795456ZM71.7687 14.6891V15.6272H73.5203L73.5194 15.6253C73.9674 15.6254 74.4109 15.5369 74.8247 15.3648C75.2387 15.1927 75.6146 14.9404 75.9315 14.6223C76.2481 14.3042 76.4994 13.9266 76.6709 13.511C76.8421 13.0954 76.9302 12.6499 76.9302 12.2C76.9302 11.2916 76.5707 10.4204 75.9312 9.77802C75.2915 9.13564 74.4241 8.77477 73.5194 8.77477H71.7695V14.6891H71.7687Z" fill="#0066FF"/>
<path d="M18.6971 18.372C22.5347 18.372 24.8496 15.5382 24.8496 12.2418C24.8496 8.94544 22.5316 6.15324 18.6971 6.15324C14.8625 6.15324 12.5876 8.94391 12.5876 12.2418C12.5876 15.5397 14.9055 18.372 18.6971 18.372ZM18.6971 15.623C16.8013 15.623 15.7483 14.0596 15.7483 12.2418C15.7483 10.4241 16.8013 8.85911 18.6971 8.85911C20.6359 8.85911 21.6889 10.4241 21.6889 12.2418C21.6889 14.0596 20.6359 15.6215 18.6971 15.6215V15.623ZM30.9165 18.372C34.1187 18.372 35.973 16.8071 35.973 14.6517C35.973 9.9584 29.0653 11.3954 29.0653 9.70556C29.0653 9.07034 29.7805 8.56309 30.8766 8.56309C32.3088 8.56309 33.6168 9.19831 34.3321 9.91678L35.5601 7.75825C34.224 6.7056 32.5715 6.13974 30.8735 6.15324C27.8035 6.15324 26.1149 7.84922 26.1149 9.83198C26.1149 14.3973 32.9841 12.8339 32.9841 14.7349C32.9841 15.4549 32.3517 15.9684 31.0456 15.9684C29.6132 15.9684 27.8849 15.1651 27.0421 14.3618L25.7327 16.5465C26.9976 17.6952 28.9364 18.372 30.9165 18.372ZM41.9756 18.372C45.1775 18.372 47.0318 16.8071 47.0318 14.6517C47.0318 9.9584 40.1243 11.3954 40.1243 9.70556C40.1243 9.07034 40.841 8.56309 41.9371 8.56309C43.3693 8.56309 44.6756 9.19831 45.3909 9.91678L46.6189 7.75825C45.2856 6.70726 43.6368 6.14098 41.9416 6.15172C38.864 6.15172 37.1831 7.8477 37.1831 9.83046C37.1831 14.3957 44.0508 12.8323 44.0508 14.7334C44.0508 15.4534 43.4184 15.9668 42.112 15.9668C40.6799 15.9668 38.9516 15.1635 38.1086 14.3603L36.7933 16.5465C38.0152 17.6952 39.9523 18.372 41.9756 18.372Z" fill="#0066FF"/>
<path fill-rule="evenodd" clip-rule="evenodd" d="M0 0.795456H3.08522V6.22801H5.30027C6.09597 6.22801 6.88385 6.3854 7.61898 6.69126C8.3541 6.99709 9.02204 7.44535 9.58467 8.01048C10.1473 8.57558 10.5936 9.24645 10.8981 9.98481C11.2026 10.7232 11.3594 11.5145 11.3594 12.3137C11.3594 13.9278 10.721 15.4757 9.58467 16.617C8.44839 17.7583 6.90723 18.3995 5.30027 18.3995H0V0.795456ZM3.08427 14.7639V15.7073H4.84536L4.84444 15.7054C5.29474 15.7056 5.74066 15.6166 6.15669 15.4435C6.57274 15.2705 6.95079 15.0168 7.26919 14.697C7.58762 14.3772 7.84017 13.9975 8.01243 13.5796C8.1847 13.1618 8.27332 12.7139 8.27318 12.2616C8.27318 11.3482 7.91194 10.4723 7.26891 9.82643C6.62591 9.18059 5.7538 8.81775 4.84444 8.81775H3.08522V14.7639H3.08427Z" fill="#0066FF"/>
<path d="M50.1555 2.75701C50.1555 3.8587 50.9594 4.67395 52.0676 4.67395C52.3203 4.68012 52.5718 4.63475 52.8064 4.54062C53.0414 4.44646 53.2544 4.30547 53.4332 4.12623C53.612 3.94697 53.7527 3.73318 53.8467 3.49783C53.9407 3.26247 53.9859 3.01043 53.9798 2.75701C53.9798 1.60666 53.1556 0.840065 52.0676 0.840065C50.9594 0.840065 50.1555 1.60666 50.1555 2.75701Z" fill="#3CEAF6"/>
</svg>
